<svg width="366" height="50" viewBox="0 0 366 50" fill="none" xmlns="http://www.w3.org/2000/svg">
<mask id="mask0_211_4700" style="mask-type:luminance" maskUnits="userSpaceOnUse" x="0" y="0" width="366" height="50">
<path d="M365.798 0H0V50H365.798V0Z" fill="white"/>
</mask>
<g mask="url(#mask0_211_4700)">
<path d="M232.52 50C232.391 50 232.25 49.9743 232.135 49.8973C231.762 49.6789 231.634 49.2165 231.852 48.8441L259.812 0.449542C260.031 0.0770789 260.493 -0.0513568 260.866 0.166983C261.238 0.385324 261.367 0.847692 261.148 1.22016L233.188 49.6147C233.046 49.8587 232.79 50 232.52 50Z" fill="white"/>
<path d="M72.4762 9.02903L72.335 12.6252H70.447L70.4084 10.506C69.7791 10.3648 69.2397 10.2877 68.4434 10.2877C66.0031 10.2877 64.9884 11.9959 64.9884 14.5132C64.9884 17.0306 65.9902 18.9443 68.5461 18.9443C69.2782 18.9443 70.1644 18.8672 70.8451 18.6617V16.3884H67.9681V14.6031H72.8615V20.0231C71.5258 20.5754 70.1259 20.8708 68.469 20.8708C64.7829 20.8708 62.7537 18.5975 62.7537 14.5132C62.7537 10.9556 64.5518 8.32263 68.5333 8.32263C70.0617 8.32263 71.4102 8.68225 72.4762 9.02903Z" fill="white"/>
<path d="M80.8245 18.3791L81.4667 19.9589C80.6062 20.4983 79.4117 20.858 78.3329 20.858C75.4945 20.858 74.3257 19.0599 74.3257 16.5554C74.3257 14.2178 75.5844 12.2785 78.1017 12.2785C80.619 12.2785 81.5566 14.0637 81.5566 15.8233C81.5566 16.2728 81.5052 16.8893 81.4153 17.2232H76.4449C76.4834 18.3791 77.0871 19.0727 78.3457 19.0727C79.2062 19.0727 80.0539 18.8158 80.8117 18.3663L80.8245 18.3791ZM79.6044 15.7205C79.6172 15.6178 79.6172 15.5279 79.6172 15.4637C79.6172 14.449 78.9365 13.9481 78.1017 13.9481C76.9715 13.9481 76.5348 14.7444 76.4706 15.7077H79.6044V15.7205ZM80.4906 8.14282L78.9237 11.0712H77.1127L78.4228 8.14282H80.4906Z" fill="white"/>
<path d="M82.8025 18.9314H83.8685V14.205H82.841V12.4583H85.6538V13.4344C86.0648 12.9335 86.784 12.2784 88.428 12.2784C90.3031 12.2784 91.2022 13.3958 91.2022 15.515V18.9314H92.2425V20.6524H88.017V18.9314H89.1986V15.7334C89.1986 14.7444 88.8518 14.1664 87.6574 14.1664C86.951 14.1664 86.2189 14.5132 85.8721 14.7829V18.9443H87.028V20.6653H82.8153V18.9443L82.8025 18.9314Z" fill="white"/>
<path d="M93.0773 18.9314H94.7984V14.205H93.0773V12.4583H96.802V18.9314H98.4074V20.6525H93.0773V18.9314ZM94.4644 9.60704C94.4644 8.74652 95.0039 8.36121 95.7231 8.36121C96.3524 8.36121 96.9689 8.73367 96.9689 9.60704C96.9689 10.4803 96.3524 10.8143 95.7231 10.8143C95.0039 10.8143 94.4644 10.4932 94.4644 9.60704Z" fill="white"/>
<path d="M105.677 18.3791L106.319 19.9589C105.458 20.4983 104.264 20.8579 103.185 20.8579C100.347 20.8579 99.178 19.0598 99.178 16.5553C99.178 14.2178 100.437 12.2784 102.954 12.2784C105.471 12.2784 106.409 14.0637 106.409 15.8233C106.409 16.2728 106.358 16.8893 106.268 17.2232H101.297C101.336 18.3791 101.939 19.0727 103.198 19.0727C104.059 19.0727 104.906 18.8158 105.664 18.3663L105.677 18.3791ZM104.457 15.7205C104.47 15.6178 104.47 15.5279 104.47 15.4636C104.47 14.449 103.789 13.9481 102.954 13.9481C101.824 13.9481 101.387 14.7444 101.323 15.7077H104.457V15.7205Z" fill="white"/>
<path d="M117.814 18.4305L118.302 20.0873C117.39 20.5754 116.234 20.8579 115.04 20.8579C112.253 20.8579 111.174 18.8672 111.174 16.5425C111.174 14.2178 112.471 12.2784 115.155 12.2784C116.465 12.2784 117.506 12.6766 118.251 12.9977L117.878 15.9902H116.247V14.1536C115.926 14.0509 115.631 14.0123 115.168 14.0123C113.948 14.0123 113.37 15.0141 113.37 16.3627C113.37 17.7113 113.82 18.9828 115.271 18.9828C116.132 18.9828 117.12 18.7516 117.827 18.4305H117.814Z" fill="white"/>
<path d="M119.381 18.9314H121.102V14.205H119.381V12.4583H123.106V18.9314H124.711V20.6525H119.381V18.9314ZM120.768 9.60704C120.768 8.74652 121.307 8.36121 122.027 8.36121C122.656 8.36121 123.273 8.73367 123.273 9.60704C123.273 10.4803 122.656 10.8143 122.027 10.8143C121.307 10.8143 120.768 10.4932 120.768 9.60704Z" fill="white"/>
<path d="M130.08 12.4583H134.305V14.205H133.278L130.773 20.6653H128.204L125.738 14.205H124.711V12.4583H129.052V14.205H127.922L129.54 18.7901L131.197 14.205H130.08V12.4583Z" fill="white"/>
<path d="M134.999 18.9314H136.72V14.205H134.999V12.4583H138.723V18.9314H140.329V20.6525H134.999V18.9314ZM136.386 9.60704C136.386 8.74652 136.925 8.36121 137.644 8.36121C138.274 8.36121 138.89 8.73367 138.89 9.60704C138.89 10.4803 138.274 10.8143 137.644 10.8143C136.925 10.8143 136.386 10.4932 136.386 9.60704Z" fill="white"/>
<path d="M141.6 9.88955H140.265V8.14282H143.578V18.0709C143.578 18.7516 143.771 18.9699 144.297 18.9699C144.554 18.9699 144.824 18.9314 145.068 18.88L145.107 20.6268C144.708 20.768 144.195 20.858 143.63 20.858C142.011 20.858 141.6 19.8176 141.6 18.3406V9.88955Z" fill="white"/>
<path d="M68.2122 38.1326C69.3039 38.1326 70.4084 37.9399 71.59 37.3362L72.0781 39.16C70.7424 39.8022 69.6121 40.1361 68.0966 40.1361C64.5389 40.1361 62.7537 37.7986 62.7537 33.8171C62.7537 30.1439 64.4747 27.588 68.1993 27.588C69.6378 27.588 71.0121 28.0247 72.001 28.41L71.8597 32.3273H69.9717L69.9332 29.7842C69.3938 29.6044 68.8672 29.5017 68.148 29.5017C65.8618 29.5017 64.9628 31.2869 64.9628 33.8043C64.9628 36.3216 65.9389 38.1197 68.1993 38.1197L68.2122 38.1326Z" fill="white"/>
<path d="M80.9401 35.8079C80.9401 38.3637 79.8998 40.1233 76.9843 40.1233C74.0688 40.1233 73.0927 38.338 73.0927 35.8464C73.0927 33.3547 74.1587 31.5438 77.0485 31.5438C79.9383 31.5438 80.9401 33.3034 80.9401 35.8079ZM78.8338 35.8464C78.8338 34.151 78.3843 33.3933 76.9972 33.3933C75.6101 33.3933 75.1991 34.151 75.1991 35.8079C75.1991 37.4647 75.6871 38.2738 77.0357 38.2738C78.3843 38.2738 78.8338 37.4775 78.8338 35.8464Z" fill="white"/>
<path d="M82.1603 38.1968H83.2263V33.4703H82.1988V31.7236H85.0116V32.6997C85.4225 32.1988 86.1418 31.5438 87.7858 31.5438C89.6609 31.5438 90.56 32.6612 90.56 34.7804V38.1968H91.6003V39.9178H87.3748V38.1968H88.5564V34.9987C88.5564 34.0098 88.2096 33.4318 87.0151 33.4318C86.3087 33.4318 85.5767 33.7786 85.2299 34.0483V38.2096H86.3858V39.9306H82.1731V38.2096L82.1603 38.1968Z" fill="white"/>
<path d="M98.8312 34.2795H97.2515L97.0203 33.1878C96.6992 33.0593 96.3396 32.9951 95.8901 32.9951C95.1708 32.9951 94.8497 33.4061 94.8497 33.8556C94.8497 34.2538 95.0167 34.5363 95.6075 34.7418L96.9047 35.14C98.3946 35.6024 99.1523 36.3473 99.1523 37.6188C99.1523 38.8903 98.3047 40.1361 95.7488 40.1361C94.4901 40.1361 93.5397 39.9435 92.6535 39.5839L92.5122 37.2463H94.092L94.4516 38.4665C94.7727 38.6334 95.2479 38.7234 95.7231 38.7234C96.4295 38.7234 96.879 38.4151 96.879 37.8628C96.879 37.4647 96.6221 37.1564 96.0827 36.9766L94.7213 36.5399C93.3342 36.1033 92.615 35.3327 92.615 34.0868C92.615 32.9309 93.347 31.5566 95.8901 31.5566C96.9561 31.5566 98.1377 31.775 98.8441 32.0832V34.2923L98.8312 34.2795Z" fill="white"/>
<path d="M103.429 37.2849C103.429 37.9527 103.802 38.2353 104.367 38.2353C104.649 38.2353 105.227 38.1839 105.613 38.1069L105.664 39.8664C105.227 40.0077 104.354 40.1233 103.763 40.1233C102.093 40.1233 101.438 39.0316 101.438 37.5674V33.4703H99.9486V31.9034L101.438 31.7236V29.7072L103.442 29.3861V31.7236H105.381V33.4703H103.442V37.2849H103.429Z" fill="white"/>
<path d="M106.614 31.7236H109.658V33.5089C109.915 32.7382 110.879 31.5438 111.983 31.5438C112.356 31.5438 112.882 31.5823 113.242 31.6337L113.075 33.9327L111.623 33.663C110.853 33.7144 110.172 34.1125 109.812 34.7418V38.1968H111.623V39.9178H106.627V38.3509L107.809 38.0298V33.4575H106.627V31.7108L106.614 31.7236Z" fill="white"/>
<path d="M122.155 38.1838H123.375V39.9305H120.563V38.4921C120.126 39.2113 119.201 40.1105 117.519 40.1105C115.759 40.1105 114.86 39.0188 114.86 36.8739V33.4575H113.678V31.7365H116.864V36.6684C116.864 37.6573 117.185 38.2352 118.379 38.2352C119.098 38.2352 119.856 37.8371 120.177 37.2463V33.4702H118.662V31.7493H122.155V38.2095V38.1838Z" fill="white"/>
<path d="M130.876 37.6959L131.364 39.3527C130.452 39.8407 129.296 40.1233 128.102 40.1233C125.315 40.1233 124.236 38.1325 124.236 35.8079C124.236 33.4832 125.533 31.5438 128.217 31.5438C129.527 31.5438 130.568 31.9419 131.313 32.263L130.94 35.2556H129.309V33.419C128.988 33.3162 128.693 33.2777 128.23 33.2777C127.01 33.2777 126.432 34.2795 126.432 35.628C126.432 36.9766 126.882 38.2481 128.333 38.2481C129.193 38.2481 130.182 38.017 130.889 37.6959H130.876Z" fill="white"/>
<path d="M135.577 37.2849C135.577 37.9527 135.949 38.2353 136.514 38.2353C136.797 38.2353 137.375 38.1839 137.76 38.1069L137.811 39.8664C137.375 40.0077 136.501 40.1233 135.911 40.1233C134.241 40.1233 133.586 39.0316 133.586 37.5674V33.4703H132.096V31.9034L133.586 31.7236V29.7072L135.59 29.3861V31.7236H137.529V33.4703H135.59V37.2849H135.577Z" fill="white"/>
<path d="M138.685 38.1968H140.406V33.4703H138.685V31.7236H142.409V38.1968H144.015V39.9178H138.685V38.1968ZM140.072 28.8723C140.072 28.0118 140.611 27.6265 141.331 27.6265C141.96 27.6265 142.576 27.999 142.576 28.8723C142.576 29.7457 141.96 30.0796 141.331 30.0796C140.611 30.0796 140.072 29.7585 140.072 28.8723Z" fill="white"/>
<path d="M152.646 35.8079C152.646 38.3637 151.605 40.1233 148.69 40.1233C145.774 40.1233 144.798 38.338 144.798 35.8464C144.798 33.3547 145.864 31.5438 148.754 31.5438C151.644 31.5438 152.646 33.3034 152.646 35.8079ZM150.539 35.8464C150.539 34.151 150.09 33.3933 148.703 33.3933C147.316 33.3933 146.905 34.151 146.905 35.8079C146.905 37.4647 147.393 38.2738 148.741 38.2738C150.09 38.2738 150.539 37.4775 150.539 35.8464Z" fill="white"/>
<path d="M153.866 38.1968H154.932V33.4703H153.904V31.7236H156.717V32.6997C157.128 32.1988 157.847 31.5438 159.491 31.5438C161.367 31.5438 162.266 32.6612 162.266 34.7804V38.1968H163.306V39.9178H159.08V38.1968H160.262V34.9987C160.262 34.0098 159.915 33.4318 158.721 33.4318C158.014 33.4318 157.282 33.7786 156.936 34.0483V38.2096H158.091V39.9306H153.879V38.2096L153.866 38.1968Z" fill="white"/>
<path d="M173.465 29.1549H171.911V27.4082H175.456V38.1968H176.638V39.9178H175.238C174.262 39.9178 173.838 39.327 173.761 38.6977C173.362 39.2756 172.515 40.1233 171.141 40.1233C168.97 40.1233 167.776 38.5435 167.776 35.8079C167.776 33.0722 168.944 31.5438 171.218 31.5438C172.399 31.5438 173.106 31.9933 173.465 32.4043V29.1421V29.1549ZM171.757 38.2353C172.476 38.2353 173.144 37.8885 173.465 37.5161V34.0226C173.195 33.7657 172.656 33.4318 171.77 33.4318C170.319 33.4318 169.843 34.4208 169.843 35.8079C169.843 37.195 170.293 38.2353 171.744 38.2353H171.757Z" fill="white"/>
<path d="M185.679 38.1838H186.9V39.9305H184.087V38.4921C183.65 39.2113 182.725 40.1105 181.043 40.1105C179.283 40.1105 178.384 39.0188 178.384 36.8739V33.4575H177.203V31.7365H180.388V36.6684C180.388 37.6573 180.709 38.2352 181.903 38.2352C182.623 38.2352 183.38 37.8371 183.701 37.2463V33.4702H182.186V31.7493H185.679V38.2095V38.1838Z" fill="white"/>
<path d="M187.837 31.7236H190.881V33.5089C191.138 32.7382 192.101 31.5438 193.206 31.5438C193.578 31.5438 194.105 31.5823 194.464 31.6337L194.297 33.9327L192.846 33.663C192.076 33.7144 191.395 34.1125 191.035 34.7418V38.1968H192.846V39.9178H187.85V38.3509L189.032 38.0298V33.4575H187.85V31.7108L187.837 31.7236Z" fill="white"/>
<path d="M197.637 34.6262H195.877C195.697 34.2795 195.607 33.907 195.607 33.5089C195.607 32.3786 196.648 31.5438 198.921 31.5438C201.349 31.5438 202.209 32.263 202.209 34.6006V37.7858C202.209 38.1325 202.389 38.2738 202.671 38.2738C202.851 38.2738 203.018 38.261 203.159 38.2224V39.9306C202.813 40.0077 202.389 40.0334 201.991 40.0334C200.95 40.0334 200.411 39.5325 200.295 38.7747C199.846 39.4426 198.947 40.1233 197.598 40.1233C196.07 40.1233 195.132 39.2242 195.132 37.7729C195.132 35.9748 196.699 35.3969 199.127 35.2171L200.154 35.1143V33.4575C199.884 33.3804 199.268 33.3547 198.908 33.3547C198.33 33.3547 198.099 33.3676 197.637 33.4575V34.6262ZM198.266 38.4536C199.024 38.4536 199.717 38.094 200.154 37.6959V36.4372L199.127 36.5656C197.688 36.7326 197.277 37.0152 197.277 37.606C197.277 38.1582 197.624 38.4536 198.266 38.4536Z" fill="white"/>
<path d="M206.602 32.4043C206.961 31.9933 207.591 31.5438 208.682 31.5438C211.033 31.5438 212.137 33.1492 212.137 35.8079C212.137 38.4665 210.956 40.1233 208.682 40.1233C207.436 40.1233 206.743 39.7252 206.293 39.3013L205.253 39.9306H204.611V29.1549H203.429V27.4082H206.614V32.4043H206.602ZM208.207 33.4318C207.321 33.4318 206.846 33.7786 206.602 34.0226V37.5289C206.884 37.8757 207.449 38.2353 208.181 38.2353C209.671 38.2353 210.056 37.1693 210.056 35.8079C210.056 34.4464 209.658 33.4318 208.207 33.4318Z" fill="white"/>
<path d="M213.833 29.1549H212.497V27.4082H215.81V37.3362C215.81 38.017 216.003 38.2353 216.53 38.2353C216.787 38.2353 217.056 38.1968 217.3 38.1454L217.339 39.8921C216.941 40.0334 216.427 40.1233 215.862 40.1233C214.244 40.1233 213.833 39.083 213.833 37.606V29.1549Z" fill="white"/>
<path d="M224.57 37.6445L225.212 39.2242C224.351 39.7637 223.157 40.1233 222.078 40.1233C219.24 40.1233 218.071 38.3252 218.071 35.8207C218.071 33.4832 219.33 31.5438 221.847 31.5438C224.364 31.5438 225.302 33.329 225.302 35.0886C225.302 35.5381 225.25 36.1546 225.161 36.4886H220.19C220.229 37.6445 220.832 38.338 222.091 38.338C222.951 38.338 223.799 38.0812 224.557 37.6316L224.57 37.6445ZM223.35 34.9859C223.362 34.8831 223.362 34.7932 223.362 34.729C223.362 33.7144 222.682 33.2135 221.847 33.2135C220.717 33.2135 220.28 34.0098 220.216 34.973H223.35V34.9859Z" fill="white"/>
<path d="M49.345 0.526586V49.345H0.526586V0.526586H49.345ZM49.8716 0H0V49.8716H49.8716V0Z" fill="white"/>
<path d="M49.8844 0H24.9422V24.9422H49.8844V0Z" fill="white"/>
<path d="M24.9422 24.9421H0V49.8843H24.9422V24.9421Z" fill="white"/>
<path d="M21.7185 2.86416C21.7185 2.86416 19.1241 1.59265 14.3719 1.59265C9.61982 1.59265 2.67145 4.40539 2.67145 12.805C2.67145 21.2047 8.43821 24.1074 14.1022 24.1074C19.7662 24.1074 21.9753 22.746 21.9753 22.746V12.8436H17.8397V20.1516C17.8397 20.1516 17.0434 20.6781 14.7187 20.6781C12.394 20.6781 7.19238 20.1516 7.19238 13.1133C7.19238 6.07505 12.4326 5.15031 14.8471 5.15031C17.2617 5.15031 21.8597 6.80713 21.8597 6.80713V2.90269L21.7185 2.86416Z" fill="white"/>
<path d="M28.1531 47.2258C28.1531 47.2258 30.7475 48.4973 35.4996 48.4973C40.2517 48.4973 47.2001 45.6846 47.2001 37.2849C47.2001 28.8852 41.4334 25.9825 35.7693 25.9825C30.1053 25.9825 27.8962 27.3439 27.8962 27.3439V37.2463H32.0319V29.9383C32.0319 29.9383 32.8282 29.4118 35.1529 29.4118C37.4775 29.4118 42.6792 29.9383 42.6792 36.9766C42.6792 44.0149 37.439 44.9396 35.0244 44.9396C32.6098 44.9396 28.0118 43.2828 28.0118 43.2828V47.1873L28.1531 47.2258Z" fill="white"/>
<path d="M21.9368 27.3568C21.9368 27.3568 19.4323 25.944 14.2435 25.944C9.05471 25.944 2.87695 28.8081 2.87695 37.1436C2.87695 45.4791 8.81068 48.5358 14.4233 48.5358C20.036 48.5358 22.1937 47.046 22.1937 47.046L21.513 43.7195C21.513 43.7195 18.3021 44.9011 14.9756 44.9011C11.6491 44.9011 7.47495 43.4883 7.47495 37.2335C7.47495 30.9787 11.5207 29.5274 15.0655 29.5274C18.6103 29.5274 21.2946 30.6704 21.2946 30.6704L21.9496 27.3439L21.9368 27.3568Z" fill="#3B1C13"/>
<path d="M46.8533 2.78706C46.8533 2.78706 44.3745 1.37427 39.2371 1.37427C34.0997 1.37427 27.9861 4.23838 27.9861 12.5739C27.9861 20.9093 33.8557 23.9661 39.4041 23.9661C44.9525 23.9661 47.0845 22.4762 47.0845 22.4762L46.4038 19.1498C46.4038 19.1498 43.2315 20.3314 39.9435 20.3314C36.6556 20.3314 32.5199 18.9186 32.5199 12.6638C32.5199 6.40895 36.5271 4.95762 40.0206 4.95762C43.514 4.95762 46.1726 6.1007 46.1726 6.1007L46.8277 2.77422L46.8533 2.78706Z" fill="#3B1C13"/>
<path d="M291.512 40.9868C291.967 40.3702 292.195 39.6574 292.195 38.8482C292.195 37.9233 291.854 37.1334 291.208 36.459C290.582 35.804 289.785 35.4572 288.855 35.4572H285.571C285.116 35.4572 284.793 35.7847 284.793 36.2471V46.9788C284.793 47.4412 285.116 47.7688 285.571 47.7688H289.234C290.183 47.7688 291.019 47.422 291.702 46.7284C292.385 46.0347 292.746 45.187 292.746 44.2236V43.742C292.746 43.0484 292.556 42.374 292.176 41.7767C291.986 41.4877 291.759 41.218 291.512 40.9868ZM289.557 39.7344C289.348 39.9464 289.064 40.062 288.703 40.062H287.147V37.827H288.874C289.178 37.827 289.386 37.9041 289.595 38.116C289.804 38.3279 289.899 38.5399 289.899 38.8482C289.88 39.2142 289.785 39.484 289.557 39.7344ZM287.128 42.4126H289.083C289.443 42.4126 289.747 42.5474 290.013 42.7979C290.278 43.0676 290.411 43.3952 290.411 43.7612V44.2429C290.411 44.5512 290.297 44.8209 290.07 45.0714C289.842 45.3026 289.576 45.4182 289.234 45.4182H287.128V42.4126Z" fill="white"/>
<path d="M298.762 35.303C297.642 35.303 296.655 35.7076 295.858 36.5168C295.061 37.326 294.663 38.3086 294.663 39.4647V43.8383C294.663 44.975 295.061 45.9769 295.858 46.7861C296.655 47.5953 297.623 47.9999 298.762 47.9999C299.901 47.9999 300.869 47.5953 301.666 46.7861C302.463 45.9769 302.862 44.9943 302.862 43.8383V39.4647C302.862 38.3279 302.463 37.326 301.666 36.5168C300.869 35.7076 299.901 35.303 298.762 35.303ZM296.997 39.4454C296.997 38.9444 297.168 38.5206 297.528 38.1738C297.87 37.827 298.288 37.6536 298.781 37.6536C299.275 37.6536 299.692 37.827 300.034 38.1738C300.394 38.5398 300.565 38.9444 300.565 39.4454V43.819C300.565 44.3392 300.394 44.7246 300.034 45.0906C299.673 45.4567 299.275 45.6301 298.781 45.6301C298.288 45.6301 297.889 45.4567 297.528 45.0906C297.168 44.7438 297.016 44.3392 297.016 43.8383L296.997 39.4454Z" fill="white"/>
<path d="M319.298 35.4572H316.679C316.223 35.4572 315.901 35.7847 315.901 36.2471V46.9788C315.901 47.4412 316.223 47.7688 316.679 47.7688H319.678C320.778 47.7688 321.727 47.3642 322.505 46.5742C323.284 45.7843 323.682 44.8209 323.682 43.7034V39.8693C323.682 38.6555 323.246 37.5958 322.392 36.7288C321.538 35.9003 320.513 35.4572 319.298 35.4572ZM319.697 45.4182H318.235V37.827H319.298C319.867 37.827 320.342 38.0197 320.74 38.4435C321.158 38.8674 321.348 39.3491 321.348 39.9078V43.7227C321.348 44.2044 321.196 44.5705 320.854 44.9173C320.532 45.2448 320.152 45.4182 319.697 45.4182Z" fill="white"/>
<path d="M332.337 45.4182H328.484V42.3933H331.692C332.128 42.3933 332.451 42.0465 332.451 41.6034V40.8327C332.451 40.3703 332.128 40.0427 331.692 40.0427H328.484V37.827H332.242C332.678 37.827 333.02 37.4802 333.02 37.0371V36.2664C333.02 35.804 332.697 35.4764 332.242 35.4764H326.947C326.491 35.4764 326.169 35.804 326.169 36.2664V46.9981C326.169 47.4605 326.491 47.7881 326.947 47.7881H332.337C332.792 47.7881 333.115 47.4605 333.115 46.9981V46.2274C333.115 45.7458 332.792 45.4182 332.337 45.4182Z" fill="white"/>
<path d="M341.01 36.0159C340.897 35.6691 340.612 35.4572 340.27 35.4572H338.866C338.524 35.4572 338.239 35.6691 338.126 36.0159L334.918 46.6513C334.88 46.7476 334.861 46.844 334.861 46.9596C334.861 47.422 335.184 47.7495 335.639 47.7495H336.436C336.797 47.7495 337.101 47.5183 337.177 47.1908L338.126 44.0695H341.01L341.959 47.21L341.978 47.2486C342.111 47.5568 342.377 47.7495 342.719 47.7495H343.516C343.952 47.7495 344.294 47.4027 344.294 46.9596C344.294 46.844 344.275 46.7476 344.237 46.6706L341.01 36.0159ZM340.441 41.7189H338.714L339.568 38.7711L340.441 41.7189Z" fill="white"/>
<path d="M352.949 35.4572H352.189C351.734 35.4572 351.411 35.7847 351.411 36.2471V44.0695C351.411 44.5127 351.278 44.8595 350.975 45.1485C350.671 45.4567 350.329 45.6109 349.912 45.6109C349.494 45.6109 349.153 45.4567 348.83 45.1485C348.545 44.8595 348.394 44.4934 348.394 44.0695V36.2471C348.394 35.7847 348.071 35.4572 347.615 35.4572H346.856C346.401 35.4572 346.078 35.7847 346.078 36.2471V44.0695C346.078 45.1485 346.458 46.0733 347.198 46.8247C347.938 47.5761 348.868 47.9615 349.912 47.9615C350.975 47.9615 351.886 47.5761 352.626 46.8054C353.366 46.0348 353.727 45.1099 353.727 44.0502V36.2278C353.727 35.7847 353.404 35.4572 352.949 35.4572Z" fill="white"/>
<path d="M360.996 41.584L363.71 36.5554L363.767 36.4205C363.843 36.0929 363.729 35.8617 363.634 35.7269C363.558 35.6113 363.349 35.4379 363.027 35.4379H362.248C361.926 35.4379 361.66 35.6113 361.546 35.881L359.743 39.2335L357.94 35.9003C357.826 35.6113 357.561 35.4379 357.238 35.4379H356.46C356.118 35.4379 355.928 35.6113 355.852 35.7269C355.757 35.8617 355.644 36.0929 355.72 36.4398L355.776 36.5746L358.472 41.584L355.776 46.5742L355.739 46.6705C355.625 47.0366 355.757 47.2871 355.833 47.4027C355.909 47.5183 356.118 47.711 356.46 47.711H357.257C357.561 47.711 357.826 47.5376 357.959 47.2486L359.743 43.9346L361.508 47.2293C361.641 47.5183 361.907 47.711 362.211 47.711H363.008C363.368 47.711 363.558 47.5183 363.634 47.4027C363.729 47.2871 363.843 47.0366 363.729 46.6513L360.996 41.584Z" fill="white"/>
<path d="M313.357 46.6706L311.251 42.586C311.516 42.4318 311.763 42.2392 311.991 42.008C312.655 41.3336 312.997 40.5051 312.997 39.561V38.9445C312.997 37.9812 312.655 37.1527 311.991 36.4783C311.327 35.804 310.529 35.4764 309.58 35.4764H306.164C305.709 35.4764 305.386 35.804 305.386 36.2664V46.9981C305.386 47.4605 305.709 47.7881 306.164 47.7881H306.923C307.36 47.7881 307.701 47.4413 307.701 46.9981V43.0291H308.935L311.118 47.2679C311.251 47.5761 311.516 47.7495 311.82 47.7495H312.617C312.978 47.7495 313.168 47.5569 313.243 47.4413C313.338 47.3257 313.452 47.0752 313.338 46.7091C313.357 46.6898 313.357 46.6898 313.357 46.6706ZM310.662 38.9445V39.561C310.662 39.8693 310.567 40.1005 310.34 40.3317C310.112 40.5629 309.884 40.6593 309.58 40.6593H307.72V37.827H309.58C309.884 37.827 310.131 37.9234 310.34 38.1353C310.567 38.3858 310.662 38.617 310.662 38.9445Z" fill="white"/>
<path d="M276.898 41.0639H276.651C276.594 41.0639 276.575 41.0254 276.575 40.9868V40.9098C276.575 40.852 276.537 40.8327 276.499 40.8327C276.48 40.8327 276.461 40.8327 276.461 40.852C276.177 41.0832 275.873 41.1795 275.55 41.1795C274.962 41.1795 274.506 40.8712 274.165 40.2547C274.127 40.1776 274.089 40.0813 274.089 39.9849V38.5399C274.089 37.9619 274.374 37.5188 274.943 37.172C274.962 37.1527 274.981 37.1527 275 37.1527C275.493 37.0178 275.949 37.0564 276.309 37.3068C276.328 37.3068 276.347 37.3261 276.366 37.3261C276.423 37.3261 276.442 37.3068 276.442 37.249V35.5728C276.442 35.515 276.48 35.4957 276.518 35.4957H276.917C276.974 35.4957 276.993 35.515 276.993 35.5728V40.9868C276.974 41.0446 276.955 41.0639 276.898 41.0639ZM276.404 38.5206C276.404 38.2702 276.328 38.0582 276.139 37.8656C275.949 37.6729 275.74 37.5958 275.493 37.5958C275.247 37.5958 275.019 37.6729 274.848 37.8656C274.677 38.039 274.582 38.2509 274.582 38.5206V39.6959C274.582 39.9464 274.677 40.1583 274.848 40.351C275.019 40.5244 275.247 40.6208 275.493 40.6208C275.74 40.6208 275.949 40.5244 276.139 40.351C276.328 40.1583 276.404 39.9464 276.404 39.6959V38.5206Z" fill="white"/>
<path d="M280.618 39.3684H278.549C278.492 39.3684 278.473 39.407 278.473 39.4455V39.6767C278.473 39.9464 278.568 40.1584 278.739 40.3318C278.929 40.5244 279.137 40.6015 279.384 40.6015C279.707 40.6015 279.991 40.5052 280.257 40.3318C280.295 40.2932 280.333 40.3125 280.371 40.351L280.599 40.6786C280.637 40.7171 280.618 40.7556 280.58 40.7942C280.143 41.1217 279.612 41.2373 279.023 41.141C278.929 41.1217 278.853 41.1024 278.777 41.0446C278.226 40.6978 277.942 40.2547 277.942 39.6767V38.1353C277.942 38.0583 277.961 37.9812 277.999 37.9234C278.321 37.3454 278.777 37.0371 279.327 37.0371C279.707 37.0371 280.048 37.172 280.314 37.461C280.58 37.75 280.713 38.0583 280.713 38.4436V39.2721C280.694 39.3299 280.675 39.3684 280.618 39.3684ZM280.143 38.4629C280.143 38.2317 280.067 38.039 279.897 37.8656C279.726 37.6922 279.536 37.6151 279.308 37.6151C279.08 37.6151 278.891 37.6922 278.72 37.8656C278.549 38.039 278.473 38.2317 278.473 38.4629V38.7326C278.473 38.7904 278.511 38.8097 278.549 38.8097H280.048C280.105 38.8097 280.124 38.7711 280.124 38.7326V38.4629H280.143Z" fill="white"/>
<path d="M307.844 13.6085C307.844 13.4138 307.904 13.2326 308.057 13.1091C308.199 12.9948 308.381 12.9629 308.556 12.9629H315.255C315.39 12.9629 315.437 12.929 315.453 12.9131C315.469 12.8971 315.493 12.8584 315.493 12.7607V10.6799C315.493 10.6249 315.486 10.5925 315.48 10.5745C315.475 10.5594 315.47 10.5553 315.468 10.5532C315.458 10.5447 315.411 10.5162 315.255 10.5162H308.556C308.36 10.5162 308.177 10.4598 308.042 10.3303C307.905 10.1992 307.844 10.0198 307.844 9.83204V4.86119C307.844 4.76574 307.817 4.72694 307.798 4.70916C307.775 4.6881 307.722 4.65893 307.607 4.65892H305.367C305.259 4.65892 305.204 4.68925 305.178 4.71386C305.154 4.73694 305.13 4.77931 305.13 4.86119V9.81285C305.13 10.0064 305.071 10.1891 304.929 10.3207C304.79 10.4489 304.607 10.4968 304.418 10.4968H301.875C301.727 10.4968 301.678 10.5274 301.666 10.5384C301.661 10.5426 301.638 10.5634 301.638 10.6607V12.7221C301.638 12.8335 301.663 12.8682 301.674 12.8792C301.687 12.892 301.733 12.9245 301.875 12.9245H304.418C304.6 12.9246 304.781 12.9641 304.92 13.0805C305.067 13.2036 305.13 13.3803 305.13 13.5699V23.9933H304.655V13.5699C304.655 13.4898 304.632 13.4641 304.618 13.4523C304.596 13.4339 304.54 13.4062 304.418 13.4062H301.875C301.674 13.4062 301.483 13.3616 301.344 13.225C301.204 13.0867 301.163 12.8997 301.163 12.7221V10.6607C301.163 10.4883 301.206 10.3066 301.353 10.176C301.493 10.052 301.681 10.0151 301.875 10.0151H304.418C304.533 10.0151 304.587 9.98594 304.609 9.96488C304.629 9.94708 304.655 9.90829 304.655 9.81285V4.86119C304.655 4.6734 304.716 4.49419 304.853 4.36314C304.989 4.23362 305.172 4.17725 305.367 4.17725H307.607C307.795 4.17725 307.979 4.22511 308.118 4.35336C308.26 4.48488 308.318 4.6677 308.318 4.86119V9.83204C308.318 9.91398 308.343 9.95648 308.367 9.97955C308.393 10.0042 308.447 10.0345 308.556 10.0345H315.255C315.442 10.0345 315.632 10.0637 315.774 10.1852C315.926 10.3159 315.967 10.5025 315.967 10.6799V12.7607C315.967 12.9327 315.924 13.1155 315.788 13.2536C315.652 13.3918 315.463 13.4446 315.255 13.4446H308.556C308.426 13.4446 308.371 13.4707 308.352 13.4864C308.344 13.493 308.318 13.5144 308.318 13.6085V24.0319H307.844V13.6085Z" fill="white"/>
<path d="M308.1 18.8683L308.119 24.5521C308.081 25.9586 308.271 27.1338 308.65 28.0587C309.03 28.9835 309.979 29.4459 311.459 29.4459C312.029 29.4459 312.731 29.3303 313.566 29.0991C314.401 28.8679 315.369 28.5211 316.451 28.0587C316.489 28.1743 316.508 28.2706 316.508 28.3477C316.508 28.4055 316.527 28.4825 316.546 28.5596C315.939 29.1569 314.838 29.7542 313.225 30.3322C311.611 30.9102 310.169 31.2184 308.859 31.2184C307.739 31.2184 306.772 30.8716 305.974 30.178C305.177 29.4844 304.779 28.2706 304.779 26.5558V24.1667L304.912 20.4674" fill="white"/>
<path d="M308.356 24.5513V24.5587C308.319 25.9411 308.506 27.0806 308.869 27.966C309.194 28.7575 310.018 29.2051 311.459 29.2051C312 29.2051 312.68 29.0948 313.504 28.8666C314.326 28.6389 315.284 28.2961 316.359 27.8367L316.595 27.7358L316.676 27.9825C316.718 28.1101 316.745 28.2342 316.745 28.3477C316.745 28.369 316.754 28.4127 316.776 28.5013L316.809 28.636L316.711 28.7327C316.066 29.3673 314.925 29.9784 313.303 30.5593C311.675 31.1428 310.205 31.4592 308.859 31.4592C307.687 31.4592 306.663 31.0949 305.82 30.361C304.945 29.5997 304.541 28.2983 304.541 26.5559V24.1624L304.542 24.1579L304.674 20.4588L305.149 20.4763L305.016 24.1703V26.5559C305.016 28.243 305.409 29.3693 306.129 29.9952C306.879 30.6485 307.791 30.9776 308.859 30.9776C310.133 30.9776 311.548 30.6776 313.146 30.1051C314.664 29.5609 315.696 29.0091 316.284 28.477C316.28 28.4498 316.275 28.4219 316.273 28.3944C315.292 28.8034 314.406 29.1163 313.629 29.3314C312.783 29.5656 312.058 29.6868 311.459 29.6868C309.94 29.6868 308.866 29.2094 308.431 28.1513C308.036 27.1886 307.844 25.9801 307.882 24.5528L307.863 18.8691L308.337 18.8676L308.356 24.5513Z" fill="white"/>
<path d="M283.427 17.5774V24.2052C283.427 25.3805 283.863 26.3824 284.774 27.2302C285.685 28.0779 286.729 28.4825 288.039 28.4825C289.31 28.4825 290.392 28.0779 291.265 27.2302C292.176 26.3824 292.651 25.3805 292.651 24.2052V10.7183C292.651 10.4293 292.784 10.3137 293.087 10.3137H295.346C295.65 10.3137 295.82 10.4293 295.82 10.7183V24.2052C295.82 26.1897 295.042 27.8852 293.505 29.2917C291.968 30.6982 290.145 31.4304 288.02 31.4304C285.894 31.4304 284.015 30.6982 282.497 29.2917C280.978 27.8852 280.238 26.1897 280.238 24.2052V17.5774H283.427Z" fill="white"/>
<path d="M283.189 24.2052V17.8183H280.475V24.2052C280.475 26.1197 281.186 27.7514 282.657 29.1137C284.13 30.4786 285.952 31.1895 288.02 31.1895C290.086 31.1895 291.852 30.48 293.346 29.1128C294.837 27.7484 295.583 26.1162 295.583 24.2052V10.7182C295.583 10.6243 295.558 10.603 295.549 10.5963C295.53 10.5806 295.475 10.5546 295.346 10.5546H293.087C292.956 10.5546 292.92 10.5813 292.914 10.5867C292.912 10.5885 292.907 10.5936 292.901 10.6106C292.894 10.63 292.888 10.6636 292.888 10.7182V24.2052C292.888 25.4562 292.379 26.5202 291.426 27.4077C290.504 28.3004 289.363 28.7233 288.039 28.7233C286.673 28.7233 285.571 28.2982 284.614 27.4077C283.656 26.5163 283.189 25.4508 283.189 24.2052ZM296.058 24.2052C296.058 26.2631 295.247 28.0221 293.664 29.4707C292.083 30.9164 290.205 31.6711 288.02 31.6711C285.837 31.6711 283.9 30.9178 282.337 29.4697C280.771 28.0191 280.001 26.2596 280.001 24.2052V17.3366H283.664V24.2052C283.664 25.3101 284.071 26.2486 284.935 27.0527C285.8 27.8576 286.785 28.2416 288.039 28.2416C289.256 28.2416 290.277 27.8564 291.101 27.0561L291.103 27.0544L291.105 27.0527C291.973 26.2447 292.414 25.3047 292.414 24.2052V10.7182C292.414 10.5411 292.454 10.3587 292.597 10.2287C292.733 10.1041 292.915 10.0729 293.087 10.0729H295.346C295.52 10.0729 295.703 10.1047 295.845 10.2191C295.998 10.3425 296.057 10.5235 296.058 10.7182V24.2052Z" fill="white"/>
<path d="M283.189 10.834C283.189 10.5046 282.935 10.3234 282.762 10.3234C282.551 10.3234 282.12 10.3738 281.625 10.428C281.145 10.4806 280.614 10.5352 280.238 10.5352C279.135 10.5352 278.523 10.516 278.129 10.4965C277.725 10.4764 277.574 10.4583 277.353 10.4583C277.226 10.4583 277.116 10.5022 277.039 10.5757C276.965 10.6466 276.907 10.7595 276.907 10.9303C276.907 11.2639 277.128 11.4408 277.353 11.4408C277.451 11.4408 277.539 11.4316 277.655 11.4158C277.771 11.4001 277.917 11.3777 278.115 11.3556C278.515 11.311 279.131 11.2675 280.238 11.2675H280.475V17.3366H283.189V10.834ZM283.664 17.8183H280.001V11.7503C279.055 11.756 278.517 11.7954 278.167 11.8344C277.976 11.8557 277.842 11.8765 277.718 11.8933C277.595 11.91 277.483 11.9225 277.353 11.9225C276.857 11.9224 276.433 11.5214 276.433 10.9303C276.433 10.6389 276.536 10.3952 276.714 10.2253C276.888 10.058 277.12 9.9766 277.353 9.97658C277.588 9.97658 277.779 9.99682 278.152 10.0153C278.537 10.0344 279.14 10.0535 280.238 10.0535C280.583 10.0535 281.087 10.0025 281.574 9.94911C282.048 9.89728 282.518 9.84169 282.762 9.84167C283.197 9.84167 283.664 10.2386 283.664 10.834V17.8183Z" fill="white"/>
<path d="M272.979 5.15008C272.979 4.42339 272.625 3.75808 272.079 3.2691C271.532 2.7793 270.809 2.48168 270.103 2.48168C269.458 2.4817 268.799 2.80686 268.297 3.31671C267.795 3.82655 267.475 4.49557 267.474 5.15008C267.474 5.85999 267.756 6.61018 268.232 7.1814C268.707 7.75093 269.361 8.12685 270.103 8.12688C271.75 8.12688 272.979 6.83396 272.979 5.15008ZM273.453 5.15008C273.453 7.08841 272.024 8.60855 270.103 8.60855C269.194 8.60853 268.415 8.1465 267.87 7.49261C267.326 6.84037 267 5.98153 267 5.15008C267 4.34036 267.392 3.55485 267.962 2.97615C268.532 2.39744 269.305 2.00002 270.103 2C270.935 2 271.768 2.34778 272.393 2.90803C273.019 3.46907 273.453 4.25843 273.453 5.15008Z" fill="white"/>
<path d="M272.589 16.8066V30.4477C272.589 30.7367 272.438 30.8908 272.153 30.8908H270.122C269.799 30.8908 269.686 30.7367 269.686 30.4477V18.7719L272.589 16.8066Z" fill="white"/>
<path d="M272.352 17.2566L269.923 18.9007V30.4478C269.923 30.5675 269.948 30.604 269.956 30.6132C269.962 30.619 269.993 30.65 270.122 30.65H272.153C272.255 30.65 272.295 30.6231 272.31 30.6075C272.326 30.5919 272.352 30.5512 272.352 30.4478V17.2566ZM272.827 30.4478C272.827 30.6333 272.778 30.8143 272.646 30.9481C272.514 31.0818 272.336 31.1317 272.153 31.1317H270.122C269.928 31.1317 269.742 31.0857 269.61 30.9422C269.48 30.8021 269.448 30.617 269.448 30.4478V18.6431L272.827 16.3567V30.4478Z" fill="white"/>
<path d="M272.827 9.97656V16.9356L269.448 19.2219V13.117H267.247V9.97656H272.827ZM267.721 12.6354H269.923V18.322L272.352 16.6777V10.4582H267.721V12.6354Z" fill="white"/>
</g>
</svg>
