<svg width="366" height="50" viewBox="0 0 366 50" fill="none" xmlns="http://www.w3.org/2000/svg">
<g clip-path="url(#clip0_211_4640)">
<mask id="mask0_211_4640" style="mask-type:luminance" maskUnits="userSpaceOnUse" x="0" y="0" width="366" height="50">
<path d="M365.798 0H0V50H365.798V0Z" fill="white"/>
</mask>
<g mask="url(#mask0_211_4640)">
<path d="M232.52 50C232.391 50 232.25 49.9743 232.135 49.8973C231.762 49.6789 231.634 49.2165 231.852 48.8441L259.812 0.449542C260.031 0.0770789 260.493 -0.0513568 260.866 0.166983C261.238 0.385324 261.367 0.847692 261.148 1.22016L233.188 49.6147C233.046 49.8587 232.79 50 232.52 50Z" fill="#009DE0"/>
<path d="M291.639 41.3049C292.114 40.6884 292.345 39.9563 292.345 39.1343C292.345 38.2096 291.998 37.3876 291.331 36.7198C290.676 36.0519 289.866 35.718 288.903 35.718H285.551C285.076 35.718 284.755 36.0519 284.755 36.5143V47.3542C284.755 47.8166 285.089 48.1505 285.551 48.1505H289.314C290.29 48.1505 291.138 47.8038 291.844 47.0974C292.551 46.391 292.91 45.5433 292.91 44.5672V44.092C292.91 43.3856 292.718 42.7049 292.32 42.1012C292.127 41.793 291.896 41.5233 291.639 41.2921M289.622 40.0077C289.404 40.226 289.121 40.3416 288.736 40.3416H287.131V38.094H288.903C289.224 38.094 289.43 38.1839 289.648 38.3894C289.866 38.6078 289.956 38.8261 289.956 39.1343C289.956 39.5197 289.854 39.7765 289.622 40.0206M287.131 42.7305H289.134C289.507 42.7305 289.828 42.859 290.085 43.1287C290.367 43.4113 290.496 43.7323 290.496 44.1048V44.58C290.496 44.9011 290.38 45.1708 290.136 45.4149C289.892 45.6589 289.622 45.7745 289.288 45.7745H287.118V42.7434L287.131 42.7305Z" fill="#3B1C13"/>
<path d="M299.088 35.5381C297.932 35.5381 296.93 35.9491 296.121 36.7711C295.299 37.5931 294.888 38.5949 294.888 39.738V44.1562C294.888 45.3121 295.299 46.3139 296.121 47.123C296.943 47.945 297.945 48.356 299.088 48.356C300.231 48.356 301.246 47.945 302.055 47.123C302.877 46.3011 303.288 45.2993 303.288 44.1562V39.738C303.288 38.5821 302.877 37.5803 302.055 36.7711C301.233 35.9491 300.244 35.5381 299.088 35.5381ZM297.264 39.738C297.264 39.2243 297.431 38.8133 297.804 38.4408C298.151 38.094 298.574 37.9142 299.088 37.9142C299.602 37.9142 300.013 38.0812 300.372 38.4408C300.745 38.8133 300.912 39.2243 300.912 39.738V44.1562C300.912 44.6828 300.745 45.0681 300.372 45.4405C300.013 45.8002 299.589 45.98 299.088 45.98C298.587 45.98 298.176 45.8002 297.804 45.4277C297.444 45.0809 297.277 44.6699 297.277 44.1562V39.738H297.264Z" fill="#3B1C13"/>
<path d="M320.152 35.7051H317.467C316.992 35.7051 316.671 36.039 316.671 36.5014V47.3414C316.671 47.8037 317.005 48.1377 317.467 48.1377H320.55C321.68 48.1377 322.643 47.7395 323.439 46.9304C324.236 46.1341 324.647 45.158 324.647 44.0406V40.1747C324.647 38.9545 324.197 37.8757 323.324 37.0023C322.451 36.1289 321.384 35.6923 320.152 35.6923M320.55 45.7488H319.06V38.0812H320.152C320.742 38.0812 321.23 38.2867 321.629 38.6977C322.052 39.1215 322.258 39.6095 322.258 40.1747V44.0406C322.258 44.5286 322.091 44.9011 321.744 45.2479C321.397 45.5946 321.012 45.7616 320.537 45.7616" fill="#3B1C13"/>
<path d="M333.535 45.7616H329.579V42.7177H332.879C333.329 42.7177 333.663 42.3709 333.663 41.9214V41.1379C333.663 40.6627 333.342 40.3416 332.879 40.3416H329.579V38.1069H333.432C333.894 38.1069 334.228 37.7601 334.228 37.3106V36.5271C334.228 36.0647 333.894 35.7308 333.432 35.7308H327.999C327.524 35.7308 327.203 36.0647 327.203 36.5271V47.3671C327.203 47.8294 327.537 48.1634 327.999 48.1634H333.547C334.01 48.1634 334.344 47.8294 334.344 47.3671V46.5836C334.344 46.1212 334.01 45.7873 333.547 45.7873" fill="#3B1C13"/>
<path d="M342.422 36.2702C342.307 35.9235 342.024 35.718 341.665 35.718H340.213C339.854 35.718 339.571 35.9235 339.455 36.2831L336.167 47.046C336.129 47.1359 336.103 47.2515 336.103 47.3671C336.103 47.8294 336.437 48.1634 336.9 48.1634H337.722C338.094 48.1634 338.402 47.9322 338.479 47.5983L339.455 44.4387H342.422L343.386 47.6111V47.6496C343.527 47.9707 343.809 48.1505 344.156 48.1505H344.978C345.441 48.1505 345.774 47.8038 345.774 47.3542C345.774 47.2386 345.749 47.1359 345.71 47.0588L342.409 36.2702H342.422ZM341.831 42.0498H340.072L340.945 39.0701L341.831 42.0498Z" fill="#3B1C13"/>
<path d="M354.688 35.7051H353.904C353.442 35.7051 353.108 36.039 353.108 36.5014V44.413C353.108 44.8626 352.967 45.2093 352.659 45.5047C352.35 45.813 351.991 45.9671 351.567 45.9671C351.143 45.9671 350.783 45.813 350.462 45.4919C350.167 45.1965 350.013 44.8369 350.013 44.4002V36.4886C350.013 36.0133 349.679 35.6923 349.217 35.6923H348.433C347.971 35.6923 347.637 36.0262 347.637 36.4886V44.4002C347.637 45.4791 348.022 46.4166 348.793 47.1873C349.563 47.9579 350.501 48.3432 351.58 48.3432C352.659 48.3432 353.596 47.9579 354.367 47.1873C355.125 46.4166 355.497 45.4791 355.497 44.4002V36.4886C355.497 36.0133 355.163 35.6923 354.701 35.6923" fill="#3B1C13"/>
<path d="M362.946 41.9085L365.721 36.8225L365.772 36.6812C365.849 36.3473 365.733 36.1161 365.631 35.9877C365.541 35.8849 365.348 35.7051 365.001 35.7051H364.205C363.871 35.7051 363.601 35.8849 363.499 36.1546L361.649 39.5325L359.8 36.1675C359.684 35.8721 359.414 35.6923 359.08 35.6923H358.284C357.937 35.6923 357.745 35.8721 357.655 35.9748C357.552 36.1033 357.436 36.3344 357.513 36.6941L357.565 36.8353L360.339 41.9085L357.565 46.9561L357.526 47.0588C357.411 47.4313 357.552 47.6753 357.629 47.7909C357.719 47.9065 357.912 48.0991 358.284 48.0991H359.106C359.427 48.0991 359.697 47.9193 359.825 47.6239L361.649 44.2846L363.473 47.6111C363.601 47.9193 363.884 48.0991 364.192 48.0991H365.014C365.374 48.0991 365.579 47.9065 365.669 47.7909C365.759 47.6753 365.887 47.4184 365.772 47.046L362.959 41.9085H362.946Z" fill="#3B1C13"/>
<path d="M314.051 47.046L311.88 42.9104C312.15 42.7562 312.407 42.5636 312.638 42.3196C313.319 41.6388 313.666 40.804 313.666 39.8407V39.2243C313.666 38.2481 313.319 37.4133 312.638 36.7326C311.97 36.0519 311.135 35.718 310.159 35.718H306.666C306.191 35.718 305.87 36.0519 305.87 36.5143V47.3542C305.87 47.8166 306.203 48.1505 306.666 48.1505H307.449C307.912 48.1505 308.246 47.8038 308.246 47.3542V43.347H309.517L311.752 47.6239C311.893 47.9322 312.163 48.112 312.484 48.112H313.306C313.678 48.112 313.871 47.9193 313.961 47.8038C314.051 47.6882 314.179 47.4313 314.064 47.0717V47.046M311.302 39.2243V39.8407C311.302 40.149 311.2 40.393 310.968 40.6242C310.724 40.8554 310.493 40.9581 310.185 40.9581H308.271V38.094H310.185C310.493 38.094 310.75 38.1968 310.956 38.4023C311.2 38.6591 311.302 38.9032 311.302 39.2114" fill="#3B1C13"/>
<path d="M276.638 41.382H276.381C276.381 41.382 276.291 41.3563 276.291 41.2921V41.2278C276.291 41.2278 276.265 41.1379 276.201 41.1379C276.175 41.1379 276.162 41.1379 276.149 41.1508C275.867 41.382 275.546 41.4847 275.212 41.4847C274.608 41.4847 274.146 41.1765 273.786 40.5471C273.735 40.4572 273.709 40.3673 273.709 40.2646V38.8004C273.709 38.2225 274.005 37.7601 274.583 37.4133C274.595 37.4133 274.621 37.3876 274.647 37.3876C275.161 37.2592 275.623 37.2849 275.995 37.5417C276.008 37.5417 276.021 37.5546 276.06 37.5546C276.111 37.5546 276.137 37.5289 276.137 37.4904V35.8207C276.137 35.8207 276.162 35.7308 276.227 35.7308H276.625C276.625 35.7308 276.702 35.7565 276.702 35.8207V41.2921C276.702 41.2921 276.676 41.382 276.625 41.382M276.137 38.8133C276.137 38.5564 276.047 38.338 275.867 38.1582C275.674 37.9656 275.469 37.8885 275.212 37.8885C274.955 37.8885 274.724 37.9784 274.557 38.1582C274.377 38.338 274.287 38.5564 274.287 38.8133V39.9949C274.287 40.2517 274.377 40.4701 274.557 40.6499C274.737 40.8297 274.955 40.9196 275.212 40.9196C275.469 40.9196 275.687 40.8297 275.867 40.6499C276.06 40.4572 276.137 40.2517 276.137 39.9949V38.8133Z" fill="#3B1C13"/>
<path d="M280.465 39.6481H278.346C278.346 39.6481 278.256 39.6738 278.256 39.738V39.982C278.256 40.2517 278.346 40.4701 278.526 40.637C278.718 40.8297 278.924 40.9196 279.181 40.9196C279.502 40.9196 279.797 40.8297 280.067 40.637C280.105 40.6114 280.144 40.6114 280.17 40.6499L280.401 40.9838C280.401 40.9838 280.426 41.0737 280.375 41.0994C279.925 41.4333 279.386 41.5361 278.782 41.4462C278.692 41.4333 278.603 41.3948 278.526 41.3563C277.96 40.9967 277.678 40.56 277.678 39.9692V38.4023C277.678 38.3252 277.691 38.261 277.729 38.1968C278.063 37.606 278.526 37.2977 279.103 37.2977C279.502 37.2977 279.836 37.439 280.118 37.7216C280.401 38.0041 280.529 38.338 280.529 38.7233V39.5582C280.529 39.5582 280.503 39.6481 280.452 39.6481M279.964 38.7362C279.964 38.505 279.887 38.2995 279.72 38.1325C279.553 37.9656 279.348 37.8885 279.116 37.8885C278.885 37.8885 278.68 37.9656 278.513 38.1325C278.346 38.2995 278.256 38.505 278.256 38.7362V39.0059C278.256 39.0059 278.282 39.0958 278.346 39.0958H279.887C279.887 39.0958 279.964 39.0701 279.964 39.0059V38.7362Z" fill="#3B1C13"/>
<path d="M305.369 24.1203V13.5757C305.369 13.2932 305.189 13.1776 304.881 13.1776H302.273C301.914 13.1776 301.785 13.0235 301.785 12.7409V10.6474C301.785 10.3649 301.927 10.2493 302.273 10.2493H304.881C305.189 10.2493 305.369 10.0823 305.369 9.7997V4.77787C305.369 4.49531 305.548 4.34119 305.857 4.34119H308.143C308.464 4.34119 308.644 4.50815 308.644 4.77787V9.7997C308.644 10.0823 308.824 10.2493 309.132 10.2493H316.003C316.363 10.2493 316.491 10.3649 316.491 10.6474V12.7409C316.491 13.0235 316.363 13.1776 316.003 13.1776H309.132C308.811 13.1776 308.644 13.2932 308.644 13.5757V24.1203" fill="#009DE0"/>
<path d="M308.669 18.9443V24.6853C308.644 26.111 308.836 27.2926 309.235 28.2173C309.633 29.1421 310.596 29.6173 312.111 29.6173C312.689 29.6173 313.409 29.5017 314.269 29.2705C315.13 29.0393 316.119 28.6797 317.223 28.2173C317.262 28.3457 317.287 28.4357 317.287 28.4999C317.287 28.5641 317.313 28.6412 317.326 28.7182C316.71 29.3219 315.566 29.9255 313.922 30.5163C312.266 31.1071 310.776 31.4025 309.453 31.4025C308.31 31.4025 307.321 31.0429 306.499 30.3365C305.677 29.6301 305.266 28.41 305.266 26.6761V24.2743L305.394 20.524" fill="#3B1C13"/>
<path d="M283.342 17.6214V24.3257C283.342 25.5073 283.791 26.5348 284.729 27.3825C285.667 28.243 286.745 28.6411 288.081 28.6411C289.417 28.6411 290.496 28.2301 291.382 27.3825C292.319 26.522 292.808 25.5073 292.808 24.3257V10.6987C292.808 10.4161 292.936 10.2877 293.257 10.2877H295.582C295.89 10.2877 296.07 10.4033 296.07 10.6987V24.3257C296.07 26.3293 295.261 28.0375 293.707 29.4631C292.14 30.8888 290.265 31.6209 288.081 31.6209C285.898 31.6209 283.971 30.8888 282.404 29.4631C280.837 28.0375 280.08 26.3165 280.08 24.3257V17.6214H283.342Z" fill="#3B1C13"/>
<path d="M283.342 10.8143C283.342 10.3519 282.982 10.0565 282.661 10.0565C282.199 10.0565 280.812 10.262 280.08 10.262C277.819 10.262 277.588 10.1721 277.126 10.1721C276.753 10.1721 276.432 10.429 276.432 10.8913C276.432 11.3537 276.753 11.6491 277.126 11.6491C277.588 11.6491 277.819 11.4822 280.08 11.4822V17.6214H283.355V10.8014L283.342 10.8143Z" fill="#009DE0"/>
<path d="M269.663 8.32268C267.981 8.32268 266.735 6.64018 266.735 5.06042C266.735 3.59625 268.199 2.13208 269.663 2.13208C271.243 2.13208 272.861 3.44213 272.861 5.06042C272.861 6.90989 271.5 8.32268 269.663 8.32268Z" fill="#009DE0"/>
<path d="M272.232 16.8508V30.6447C272.232 30.9273 272.065 31.0943 271.783 31.0943H269.702C269.381 31.0943 269.253 30.9273 269.253 30.6447V18.8287L272.232 16.8508Z" fill="#3B1C13"/>
<path d="M272.232 16.8509V10.1851H266.992V12.8822H269.253V18.8288L272.232 16.8509Z" fill="#009DE0"/>
<path d="M72.4762 9.02903L72.335 12.6252H70.447L70.4084 10.506C69.7791 10.3648 69.2397 10.2877 68.4434 10.2877C66.0031 10.2877 64.9884 11.9959 64.9884 14.5132C64.9884 17.0306 65.9902 18.9443 68.5461 18.9443C69.2782 18.9443 70.1644 18.8672 70.8451 18.6617V16.3884H67.9681V14.6031H72.8615V20.0231C71.5258 20.5754 70.1259 20.8708 68.469 20.8708C64.7829 20.8708 62.7537 18.5975 62.7537 14.5132C62.7537 10.9556 64.5518 8.32263 68.5333 8.32263C70.0617 8.32263 71.4102 8.68225 72.4762 9.02903Z" fill="#3B1C13"/>
<path d="M80.8245 18.3791L81.4667 19.9589C80.6062 20.4983 79.4117 20.858 78.3329 20.858C75.4945 20.858 74.3257 19.0599 74.3257 16.5554C74.3257 14.2178 75.5844 12.2785 78.1017 12.2785C80.619 12.2785 81.5566 14.0637 81.5566 15.8233C81.5566 16.2728 81.5052 16.8893 81.4153 17.2232H76.4449C76.4834 18.3791 77.0871 19.0727 78.3457 19.0727C79.2062 19.0727 80.0539 18.8158 80.8117 18.3663L80.8245 18.3791ZM79.6044 15.7205C79.6172 15.6178 79.6172 15.5279 79.6172 15.4637C79.6172 14.449 78.9365 13.9481 78.1017 13.9481C76.9715 13.9481 76.5348 14.7444 76.4706 15.7077H79.6044V15.7205ZM80.4906 8.14282L78.9237 11.0712H77.1127L78.4228 8.14282H80.4906Z" fill="#3B1C13"/>
<path d="M82.8025 18.9314H83.8685V14.205H82.841V12.4583H85.6538V13.4344C86.0648 12.9335 86.784 12.2784 88.428 12.2784C90.3031 12.2784 91.2022 13.3958 91.2022 15.515V18.9314H92.2425V20.6524H88.017V18.9314H89.1986V15.7334C89.1986 14.7444 88.8518 14.1664 87.6574 14.1664C86.951 14.1664 86.2189 14.5132 85.8721 14.7829V18.9443H87.028V20.6653H82.8153V18.9443L82.8025 18.9314Z" fill="#3B1C13"/>
<path d="M93.0773 18.9314H94.7984V14.205H93.0773V12.4583H96.802V18.9314H98.4074V20.6525H93.0773V18.9314ZM94.4644 9.60704C94.4644 8.74652 95.0039 8.36121 95.7231 8.36121C96.3524 8.36121 96.9689 8.73367 96.9689 9.60704C96.9689 10.4803 96.3524 10.8143 95.7231 10.8143C95.0039 10.8143 94.4644 10.4932 94.4644 9.60704Z" fill="#3B1C13"/>
<path d="M105.677 18.3791L106.319 19.9589C105.458 20.4983 104.264 20.8579 103.185 20.8579C100.347 20.8579 99.178 19.0598 99.178 16.5553C99.178 14.2178 100.437 12.2784 102.954 12.2784C105.471 12.2784 106.409 14.0637 106.409 15.8233C106.409 16.2728 106.358 16.8893 106.268 17.2232H101.297C101.336 18.3791 101.939 19.0727 103.198 19.0727C104.059 19.0727 104.906 18.8158 105.664 18.3663L105.677 18.3791ZM104.457 15.7205C104.47 15.6178 104.47 15.5279 104.47 15.4636C104.47 14.449 103.789 13.9481 102.954 13.9481C101.824 13.9481 101.387 14.7444 101.323 15.7077H104.457V15.7205Z" fill="#3B1C13"/>
<path d="M117.814 18.4305L118.302 20.0873C117.39 20.5754 116.234 20.8579 115.04 20.8579C112.253 20.8579 111.174 18.8672 111.174 16.5425C111.174 14.2178 112.471 12.2784 115.155 12.2784C116.465 12.2784 117.506 12.6766 118.251 12.9977L117.878 15.9902H116.247V14.1536C115.926 14.0509 115.631 14.0123 115.168 14.0123C113.948 14.0123 113.37 15.0141 113.37 16.3627C113.37 17.7113 113.82 18.9828 115.271 18.9828C116.132 18.9828 117.12 18.7516 117.827 18.4305H117.814Z" fill="#3B1C13"/>
<path d="M119.381 18.9314H121.102V14.205H119.381V12.4583H123.106V18.9314H124.711V20.6525H119.381V18.9314ZM120.768 9.60704C120.768 8.74652 121.307 8.36121 122.027 8.36121C122.656 8.36121 123.273 8.73367 123.273 9.60704C123.273 10.4803 122.656 10.8143 122.027 10.8143C121.307 10.8143 120.768 10.4932 120.768 9.60704Z" fill="#3B1C13"/>
<path d="M130.08 12.4583H134.305V14.205H133.278L130.773 20.6653H128.204L125.738 14.205H124.711V12.4583H129.052V14.205H127.922L129.54 18.7901L131.197 14.205H130.08V12.4583Z" fill="#3B1C13"/>
<path d="M134.999 18.9314H136.72V14.205H134.999V12.4583H138.723V18.9314H140.329V20.6525H134.999V18.9314ZM136.386 9.60704C136.386 8.74652 136.925 8.36121 137.644 8.36121C138.274 8.36121 138.89 8.73367 138.89 9.60704C138.89 10.4803 138.274 10.8143 137.644 10.8143C136.925 10.8143 136.386 10.4932 136.386 9.60704Z" fill="#3B1C13"/>
<path d="M141.6 9.88955H140.265V8.14282H143.578V18.0709C143.578 18.7516 143.771 18.9699 144.297 18.9699C144.554 18.9699 144.824 18.9314 145.068 18.88L145.107 20.6268C144.708 20.768 144.195 20.858 143.63 20.858C142.011 20.858 141.6 19.8176 141.6 18.3406V9.88955Z" fill="#3B1C13"/>
<path d="M68.2122 38.1326C69.3039 38.1326 70.4084 37.9399 71.59 37.3362L72.0781 39.16C70.7424 39.8022 69.6121 40.1361 68.0966 40.1361C64.5389 40.1361 62.7537 37.7986 62.7537 33.8171C62.7537 30.1439 64.4747 27.588 68.1993 27.588C69.6378 27.588 71.0121 28.0247 72.001 28.41L71.8597 32.3273H69.9717L69.9332 29.7842C69.3938 29.6044 68.8672 29.5017 68.148 29.5017C65.8618 29.5017 64.9628 31.2869 64.9628 33.8043C64.9628 36.3216 65.9389 38.1197 68.1993 38.1197L68.2122 38.1326Z" fill="#3B1C13"/>
<path d="M80.9401 35.8079C80.9401 38.3637 79.8998 40.1233 76.9843 40.1233C74.0688 40.1233 73.0927 38.338 73.0927 35.8464C73.0927 33.3547 74.1587 31.5438 77.0485 31.5438C79.9383 31.5438 80.9401 33.3034 80.9401 35.8079ZM78.8338 35.8464C78.8338 34.151 78.3843 33.3933 76.9972 33.3933C75.6101 33.3933 75.1991 34.151 75.1991 35.8079C75.1991 37.4647 75.6871 38.2738 77.0357 38.2738C78.3843 38.2738 78.8338 37.4775 78.8338 35.8464Z" fill="#3B1C13"/>
<path d="M82.1603 38.1968H83.2263V33.4703H82.1988V31.7236H85.0116V32.6997C85.4225 32.1988 86.1418 31.5438 87.7858 31.5438C89.6609 31.5438 90.56 32.6612 90.56 34.7804V38.1968H91.6003V39.9178H87.3748V38.1968H88.5564V34.9987C88.5564 34.0098 88.2096 33.4318 87.0151 33.4318C86.3087 33.4318 85.5767 33.7786 85.2299 34.0483V38.2096H86.3858V39.9306H82.1731V38.2096L82.1603 38.1968Z" fill="#3B1C13"/>
<path d="M98.8312 34.2795H97.2515L97.0203 33.1878C96.6992 33.0593 96.3396 32.9951 95.8901 32.9951C95.1708 32.9951 94.8497 33.4061 94.8497 33.8556C94.8497 34.2538 95.0167 34.5363 95.6075 34.7418L96.9047 35.14C98.3946 35.6024 99.1523 36.3473 99.1523 37.6188C99.1523 38.8903 98.3047 40.1361 95.7488 40.1361C94.4901 40.1361 93.5397 39.9435 92.6535 39.5839L92.5122 37.2463H94.092L94.4516 38.4665C94.7727 38.6334 95.2479 38.7234 95.7231 38.7234C96.4295 38.7234 96.879 38.4151 96.879 37.8628C96.879 37.4647 96.6221 37.1564 96.0827 36.9766L94.7213 36.5399C93.3342 36.1033 92.615 35.3327 92.615 34.0868C92.615 32.9309 93.347 31.5566 95.8901 31.5566C96.9561 31.5566 98.1377 31.775 98.8441 32.0832V34.2923L98.8312 34.2795Z" fill="#3B1C13"/>
<path d="M103.429 37.2849C103.429 37.9527 103.802 38.2353 104.367 38.2353C104.649 38.2353 105.227 38.1839 105.613 38.1069L105.664 39.8664C105.227 40.0077 104.354 40.1233 103.763 40.1233C102.093 40.1233 101.438 39.0316 101.438 37.5674V33.4703H99.9486V31.9034L101.438 31.7236V29.7072L103.442 29.3861V31.7236H105.381V33.4703H103.442V37.2849H103.429Z" fill="#3B1C13"/>
<path d="M106.614 31.7236H109.658V33.5089C109.915 32.7382 110.879 31.5438 111.983 31.5438C112.356 31.5438 112.882 31.5823 113.242 31.6337L113.075 33.9327L111.623 33.663C110.853 33.7144 110.172 34.1125 109.812 34.7418V38.1968H111.623V39.9178H106.627V38.3509L107.809 38.0298V33.4575H106.627V31.7108L106.614 31.7236Z" fill="#3B1C13"/>
<path d="M122.155 38.1838H123.375V39.9305H120.563V38.4921C120.126 39.2113 119.201 40.1105 117.519 40.1105C115.759 40.1105 114.86 39.0188 114.86 36.8739V33.4575H113.678V31.7365H116.864V36.6684C116.864 37.6573 117.185 38.2352 118.379 38.2352C119.098 38.2352 119.856 37.8371 120.177 37.2463V33.4702H118.662V31.7493H122.155V38.2095V38.1838Z" fill="#3B1C13"/>
<path d="M130.876 37.6959L131.364 39.3527C130.452 39.8407 129.296 40.1233 128.102 40.1233C125.315 40.1233 124.236 38.1325 124.236 35.8079C124.236 33.4832 125.533 31.5438 128.217 31.5438C129.527 31.5438 130.568 31.9419 131.313 32.263L130.94 35.2556H129.309V33.419C128.988 33.3162 128.693 33.2777 128.23 33.2777C127.01 33.2777 126.432 34.2795 126.432 35.628C126.432 36.9766 126.882 38.2481 128.333 38.2481C129.193 38.2481 130.182 38.017 130.889 37.6959H130.876Z" fill="#3B1C13"/>
<path d="M135.577 37.2849C135.577 37.9527 135.949 38.2353 136.514 38.2353C136.797 38.2353 137.375 38.1839 137.76 38.1069L137.811 39.8664C137.375 40.0077 136.501 40.1233 135.911 40.1233C134.241 40.1233 133.586 39.0316 133.586 37.5674V33.4703H132.096V31.9034L133.586 31.7236V29.7072L135.59 29.3861V31.7236H137.529V33.4703H135.59V37.2849H135.577Z" fill="#3B1C13"/>
<path d="M138.685 38.1968H140.406V33.4703H138.685V31.7236H142.409V38.1968H144.015V39.9178H138.685V38.1968ZM140.072 28.8723C140.072 28.0118 140.611 27.6265 141.331 27.6265C141.96 27.6265 142.576 27.999 142.576 28.8723C142.576 29.7457 141.96 30.0796 141.331 30.0796C140.611 30.0796 140.072 29.7585 140.072 28.8723Z" fill="#3B1C13"/>
<path d="M152.646 35.8079C152.646 38.3637 151.605 40.1233 148.69 40.1233C145.774 40.1233 144.798 38.338 144.798 35.8464C144.798 33.3547 145.864 31.5438 148.754 31.5438C151.644 31.5438 152.646 33.3034 152.646 35.8079ZM150.539 35.8464C150.539 34.151 150.09 33.3933 148.703 33.3933C147.316 33.3933 146.905 34.151 146.905 35.8079C146.905 37.4647 147.393 38.2738 148.741 38.2738C150.09 38.2738 150.539 37.4775 150.539 35.8464Z" fill="#3B1C13"/>
<path d="M153.866 38.1968H154.932V33.4703H153.904V31.7236H156.717V32.6997C157.128 32.1988 157.847 31.5438 159.491 31.5438C161.367 31.5438 162.266 32.6612 162.266 34.7804V38.1968H163.306V39.9178H159.08V38.1968H160.262V34.9987C160.262 34.0098 159.915 33.4318 158.721 33.4318C158.014 33.4318 157.282 33.7786 156.936 34.0483V38.2096H158.091V39.9306H153.879V38.2096L153.866 38.1968Z" fill="#3B1C13"/>
<path d="M173.465 29.1549H171.911V27.4082H175.456V38.1968H176.638V39.9178H175.238C174.262 39.9178 173.838 39.327 173.761 38.6977C173.362 39.2756 172.515 40.1233 171.141 40.1233C168.97 40.1233 167.776 38.5435 167.776 35.8079C167.776 33.0722 168.944 31.5438 171.218 31.5438C172.399 31.5438 173.106 31.9933 173.465 32.4043V29.1421V29.1549ZM171.757 38.2353C172.476 38.2353 173.144 37.8885 173.465 37.5161V34.0226C173.195 33.7657 172.656 33.4318 171.77 33.4318C170.319 33.4318 169.843 34.4208 169.843 35.8079C169.843 37.195 170.293 38.2353 171.744 38.2353H171.757Z" fill="#3B1C13"/>
<path d="M185.679 38.1838H186.9V39.9305H184.087V38.4921C183.65 39.2113 182.725 40.1105 181.043 40.1105C179.283 40.1105 178.384 39.0188 178.384 36.8739V33.4575H177.203V31.7365H180.388V36.6684C180.388 37.6573 180.709 38.2352 181.903 38.2352C182.623 38.2352 183.38 37.8371 183.701 37.2463V33.4702H182.186V31.7493H185.679V38.2095V38.1838Z" fill="#3B1C13"/>
<path d="M187.837 31.7236H190.881V33.5089C191.138 32.7382 192.101 31.5438 193.206 31.5438C193.578 31.5438 194.105 31.5823 194.464 31.6337L194.297 33.9327L192.846 33.663C192.076 33.7144 191.395 34.1125 191.035 34.7418V38.1968H192.846V39.9178H187.85V38.3509L189.032 38.0298V33.4575H187.85V31.7108L187.837 31.7236Z" fill="#3B1C13"/>
<path d="M197.637 34.6262H195.877C195.697 34.2795 195.607 33.907 195.607 33.5089C195.607 32.3786 196.648 31.5438 198.921 31.5438C201.349 31.5438 202.209 32.263 202.209 34.6006V37.7858C202.209 38.1325 202.389 38.2738 202.671 38.2738C202.851 38.2738 203.018 38.261 203.159 38.2224V39.9306C202.813 40.0077 202.389 40.0334 201.991 40.0334C200.95 40.0334 200.411 39.5325 200.295 38.7747C199.846 39.4426 198.947 40.1233 197.598 40.1233C196.07 40.1233 195.132 39.2242 195.132 37.7729C195.132 35.9748 196.699 35.3969 199.127 35.2171L200.154 35.1143V33.4575C199.884 33.3804 199.268 33.3547 198.908 33.3547C198.33 33.3547 198.099 33.3676 197.637 33.4575V34.6262ZM198.266 38.4536C199.024 38.4536 199.717 38.094 200.154 37.6959V36.4372L199.127 36.5656C197.688 36.7326 197.277 37.0152 197.277 37.606C197.277 38.1582 197.624 38.4536 198.266 38.4536Z" fill="#3B1C13"/>
<path d="M206.602 32.4043C206.961 31.9933 207.591 31.5438 208.682 31.5438C211.033 31.5438 212.137 33.1492 212.137 35.8079C212.137 38.4665 210.956 40.1233 208.682 40.1233C207.436 40.1233 206.743 39.7252 206.293 39.3013L205.253 39.9306H204.611V29.1549H203.429V27.4082H206.614V32.4043H206.602ZM208.207 33.4318C207.321 33.4318 206.846 33.7786 206.602 34.0226V37.5289C206.884 37.8757 207.449 38.2353 208.181 38.2353C209.671 38.2353 210.056 37.1693 210.056 35.8079C210.056 34.4464 209.658 33.4318 208.207 33.4318Z" fill="#3B1C13"/>
<path d="M213.833 29.1549H212.497V27.4082H215.81V37.3362C215.81 38.017 216.003 38.2353 216.53 38.2353C216.787 38.2353 217.056 38.1968 217.3 38.1454L217.339 39.8921C216.941 40.0334 216.427 40.1233 215.862 40.1233C214.244 40.1233 213.833 39.083 213.833 37.606V29.1549Z" fill="#3B1C13"/>
<path d="M224.57 37.6445L225.212 39.2242C224.351 39.7637 223.157 40.1233 222.078 40.1233C219.24 40.1233 218.071 38.3252 218.071 35.8207C218.071 33.4832 219.33 31.5438 221.847 31.5438C224.364 31.5438 225.302 33.329 225.302 35.0886C225.302 35.5381 225.25 36.1546 225.161 36.4886H220.19C220.229 37.6445 220.832 38.338 222.091 38.338C222.951 38.338 223.799 38.0812 224.557 37.6316L224.57 37.6445ZM223.35 34.9859C223.362 34.8831 223.362 34.7932 223.362 34.729C223.362 33.7144 222.682 33.2135 221.847 33.2135C220.717 33.2135 220.28 34.0098 220.216 34.973H223.35V34.9859Z" fill="#3B1C13"/>
<path d="M49.345 0.526586V49.345H0.526586V0.526586H49.345ZM49.8716 0H0V49.8716H49.8716V0Z" fill="#009DE0"/>
<path d="M49.8844 0H24.9422V24.9422H49.8844V0Z" fill="#009DE0"/>
<path d="M24.9422 24.9421H0V49.8843H24.9422V24.9421Z" fill="#009DE0"/>
<path d="M21.7185 2.86416C21.7185 2.86416 19.1241 1.59265 14.3719 1.59265C9.61982 1.59265 2.67145 4.40539 2.67145 12.805C2.67145 21.2047 8.43821 24.1074 14.1022 24.1074C19.7662 24.1074 21.9753 22.746 21.9753 22.746V12.8436H17.8397V20.1516C17.8397 20.1516 17.0434 20.6781 14.7187 20.6781C12.394 20.6781 7.19238 20.1516 7.19238 13.1133C7.19238 6.07505 12.4326 5.15031 14.8471 5.15031C17.2617 5.15031 21.8597 6.80713 21.8597 6.80713V2.90269L21.7185 2.86416Z" fill="#009DE0"/>
<path d="M28.1531 47.2258C28.1531 47.2258 30.7475 48.4973 35.4996 48.4973C40.2517 48.4973 47.2001 45.6846 47.2001 37.2849C47.2001 28.8852 41.4334 25.9825 35.7693 25.9825C30.1053 25.9825 27.8962 27.3439 27.8962 27.3439V37.2463H32.0319V29.9383C32.0319 29.9383 32.8282 29.4118 35.1529 29.4118C37.4775 29.4118 42.6792 29.9383 42.6792 36.9766C42.6792 44.0149 37.439 44.9396 35.0244 44.9396C32.6098 44.9396 28.0118 43.2828 28.0118 43.2828V47.1873L28.1531 47.2258Z" fill="#009DE0"/>
<path d="M21.9368 27.3568C21.9368 27.3568 19.4323 25.944 14.2435 25.944C9.05471 25.944 2.87695 28.8081 2.87695 37.1436C2.87695 45.4791 8.81068 48.5358 14.4233 48.5358C20.036 48.5358 22.1937 47.046 22.1937 47.046L21.513 43.7195C21.513 43.7195 18.3021 44.9011 14.9756 44.9011C11.6491 44.9011 7.47495 43.4883 7.47495 37.2335C7.47495 30.9787 11.5207 29.5274 15.0655 29.5274C18.6103 29.5274 21.2946 30.6704 21.2946 30.6704L21.9496 27.3439L21.9368 27.3568Z" fill="white"/>
<path d="M46.8533 2.78706C46.8533 2.78706 44.3745 1.37427 39.2371 1.37427C34.0997 1.37427 27.9861 4.23838 27.9861 12.5739C27.9861 20.9093 33.8557 23.9661 39.4041 23.9661C44.9525 23.9661 47.0845 22.4762 47.0845 22.4762L46.4038 19.1498C46.4038 19.1498 43.2315 20.3314 39.9435 20.3314C36.6556 20.3314 32.5199 18.9186 32.5199 12.6638C32.5199 6.40895 36.5271 4.95762 40.0206 4.95762C43.514 4.95762 46.1726 6.1007 46.1726 6.1007L46.8277 2.77422L46.8533 2.78706Z" fill="white"/>
</g>
</g>
<defs>
<clipPath id="clip0_211_4640">
<rect width="366" height="50" fill="white"/>
</clipPath>
</defs>
</svg>
